<?xml version="1.0" encoding="utf-8"?>
<!-- Generator: Adobe Illustrator 21.0.2, SVG Export Plug-In . SVG Version: 6.00 Build 0)  -->
<svg version="1.1" id="Layer_1" xmlns="http://www.w3.org/2000/svg" xmlns:xlink="http://www.w3.org/1999/xlink" x="0px" y="0px"
	 viewBox="0 0 586 440" style="enable-background:new 0 0 586 440;" xml:space="preserve">
<style type="text/css">
	.st0{fill:none;stroke:#EBC181;stroke-width:7.7002;stroke-miterlimit:10;}
	.st1{fill:none;stroke:#EBC181;stroke-width:0.4559;stroke-miterlimit:10;}
	.st2{fill:none;stroke:#EBC181;stroke-width:0.5084;stroke-miterlimit:10;}
	.st3{fill:none;stroke:#EBC181;stroke-width:0.6211;stroke-miterlimit:10;}
	.st4{fill:none;stroke:#EBC181;stroke-width:0.5035;stroke-miterlimit:10;}
	.st5{fill:none;stroke:#EBC181;stroke-width:0.6374;stroke-miterlimit:10;}
	.st6{fill:none;stroke:#EBC181;stroke-width:0.3995;stroke-miterlimit:10;}
</style>
<line class="st0" x1="110.5" y1="311.4" x2="110.5" y2="275.1"/>
<g>
	<line class="st1" x1="113.7" y1="307.4" x2="113.7" y2="397.2"/>
	<line class="st1" x1="107.4" y1="307.4" x2="107.4" y2="397.2"/>
	<line class="st1" x1="110.5" y1="307.4" x2="110.5" y2="397.2"/>
</g>
<g>
	<line class="st1" x1="113.7" y1="186.9" x2="113.7" y2="276.7"/>
	<line class="st1" x1="107.4" y1="186.9" x2="107.4" y2="276.7"/>
	<line class="st1" x1="110.5" y1="186.9" x2="110.5" y2="276.7"/>
</g>
<g>
	<line class="st2" x1="113.7" y1="60.6" x2="113.7" y2="132"/>
	<line class="st2" x1="107.4" y1="60.6" x2="107.4" y2="132"/>
	<line class="st2" x1="110.5" y1="60.6" x2="110.5" y2="132"/>
</g>
<g>
	<line class="st1" x1="470.7" y1="323.7" x2="470.7" y2="413.6"/>
	<line class="st1" x1="464.4" y1="323.7" x2="464.4" y2="413.6"/>
	<line class="st1" x1="467.5" y1="323.7" x2="467.5" y2="413.6"/>
</g>
<g>
	<line class="st3" x1="322.3" y1="8.4" x2="484.8" y2="8.4"/>
	<line class="st3" x1="322.3" y1="14.9" x2="484.8" y2="14.9"/>
	<line class="st3" x1="322.3" y1="11.6" x2="484.8" y2="11.6"/>
</g>
<g>
	<line class="st4" x1="149.6" y1="8.4" x2="256.4" y2="8.4"/>
	<line class="st4" x1="149.6" y1="14.9" x2="256.4" y2="14.9"/>
	<line class="st4" x1="149.6" y1="11.6" x2="256.4" y2="11.6"/>
</g>
<g>
	<line class="st5" x1="214.6" y1="426.5" x2="385.7" y2="426.5"/>
	<line class="st5" x1="214.6" y1="433" x2="385.7" y2="433"/>
	<line class="st5" x1="214.6" y1="429.8" x2="385.7" y2="429.8"/>
</g>
<g>
	<line class="st1" x1="470.7" y1="187.1" x2="470.7" y2="276.9"/>
	<line class="st1" x1="464.4" y1="187.1" x2="464.4" y2="276.9"/>
	<line class="st1" x1="467.5" y1="187.1" x2="467.5" y2="276.9"/>
</g>
<g>
	<line class="st1" x1="523" y1="57.1" x2="523" y2="106.5"/>
	<line class="st1" x1="516.7" y1="57.1" x2="516.7" y2="106.5"/>
	<line class="st1" x1="519.9" y1="57.1" x2="519.9" y2="106.5"/>
</g>
<g>
	<line class="st6" x1="172.2" y1="314.2" x2="215.7" y2="314.2"/>
	<path class="st6" d="M172.1,271.9c0,0,13.8,1.1,26.6,14.2c15.5,15.9,17,28.2,17,28.2"/>
</g>
<line class="st0" x1="172.3" y1="314.1" x2="172.3" y2="428.4"/>
<polyline class="st0" points="109.4,158.5 172.3,158.4 172.3,272.1 "/>
<line class="st0" x1="110.5" y1="131" x2="110.5" y2="187.9"/>
<polyline class="st0" points="158.7,11.5 110.5,11.5 110.5,62.2 "/>
<line class="st0" x1="323.4" y1="11.5" x2="251.4" y2="11.5"/>
<polyline class="st0" points="519.9,57.1 519.9,11.5 478.4,11.5 "/>
<polyline class="st0" points="387.2,156.1 519.9,156.1 519.9,106.4 "/>
<line class="st0" x1="281.7" y1="11.2" x2="281.7" y2="74.2"/>
<line class="st0" x1="467.4" y1="189.6" x2="467.4" y2="158.9"/>
<line class="st0" x1="467.4" y1="328.9" x2="467.4" y2="272.7"/>
<polyline class="st0" points="220,429.6 110.5,429.6 110.5,394.5 "/>
<polyline class="st0" points="467.4,406.9 467.4,429.6 382.9,429.6 "/>
<line class="st6" x1="171.9" y1="316.7" x2="171.9" y2="271.8"/>
</svg>
