<?xml version="1.0" encoding="utf-8"?>
<!-- Generator: Adobe Illustrator 21.0.2, SVG Export Plug-In . SVG Version: 6.00 Build 0)  -->
<svg version="1.1" id="Layer_1" xmlns="http://www.w3.org/2000/svg" xmlns:xlink="http://www.w3.org/1999/xlink" x="0px" y="0px"
	 viewBox="0 0 651 440" style="enable-background:new 0 0 651 440;" xml:space="preserve">
<style type="text/css">
	.st0{fill:none;stroke:#EBC181;stroke-width:7.9089;stroke-miterlimit:10;}
	.st1{fill:none;stroke:#EBC181;stroke-width:0.4682;stroke-miterlimit:10;}
	.st2{fill:none;stroke:#EBC181;stroke-width:0.5222;stroke-miterlimit:10;}
	.st3{fill:none;stroke:#EBC181;stroke-width:0.6379;stroke-miterlimit:10;}
	.st4{fill:none;stroke:#EBC181;stroke-width:0.5172;stroke-miterlimit:10;}
	.st5{fill:none;stroke:#EBC181;stroke-width:0.4103;stroke-miterlimit:10;}
	.st6{fill:none;stroke:#EBC181;stroke-width:0.4243;stroke-miterlimit:10;}
	.st7{fill:none;stroke:#EBC181;stroke-width:0.413;stroke-miterlimit:10;}
</style>
<g>
	<line class="st0" x1="219.3" y1="6.4" x2="256.1" y2="6.4"/>
	<g>
		<line class="st1" x1="223.4" y1="9.8" x2="132.3" y2="9.8"/>
		<line class="st1" x1="223.4" y1="3.3" x2="132.3" y2="3.3"/>
		<line class="st1" x1="223.4" y1="6.6" x2="132.3" y2="6.6"/>
	</g>
	<g>
		<line class="st1" x1="345.6" y1="9.8" x2="254.5" y2="9.8"/>
		<line class="st1" x1="345.6" y1="3.3" x2="254.5" y2="3.3"/>
		<line class="st1" x1="345.6" y1="6.6" x2="254.5" y2="6.6"/>
	</g>
	<g>
		<line class="st2" x1="514.6" y1="9.8" x2="401.2" y2="9.8"/>
		<line class="st2" x1="514.6" y1="3.3" x2="401.2" y2="3.3"/>
		<line class="st2" x1="514.6" y1="6.6" x2="401.2" y2="6.6"/>
	</g>
	<g>
		<line class="st1" x1="206.8" y1="356.6" x2="115.7" y2="356.6"/>
		<line class="st1" x1="206.8" y1="350.1" x2="115.7" y2="350.1"/>
		<line class="st1" x1="206.8" y1="353.3" x2="115.7" y2="353.3"/>
	</g>
	<g>
		<line class="st3" x1="567.5" y1="226.7" x2="567.5" y2="395.9"/>
		<line class="st3" x1="561" y1="226.7" x2="561" y2="395.9"/>
		<line class="st3" x1="564.3" y1="226.7" x2="564.3" y2="395.9"/>
	</g>
	<g>
		<line class="st4" x1="567.5" y1="47.2" x2="567.5" y2="158.3"/>
		<line class="st4" x1="561" y1="47.2" x2="561" y2="158.3"/>
		<line class="st4" x1="564.3" y1="47.2" x2="564.3" y2="158.3"/>
	</g>
	<g>
		<line class="st1" x1="345.3" y1="356.6" x2="254.2" y2="356.6"/>
		<line class="st1" x1="345.3" y1="350.1" x2="254.2" y2="350.1"/>
		<line class="st1" x1="345.3" y1="353.3" x2="254.2" y2="353.3"/>
	</g>
	<g>
		<line class="st1" x1="518.2" y1="435.6" x2="427.1" y2="435.6"/>
		<line class="st1" x1="518.2" y1="429" x2="427.1" y2="429"/>
		<line class="st1" x1="518.2" y1="432.3" x2="427.1" y2="432.3"/>
	</g>
	<g>
		<line class="st5" x1="316.4" y1="145.8" x2="361.7" y2="145.8"/>
		<path class="st5" d="M316.4,102.8c0,0,14.4,1.1,27.7,14.4c16.1,16.1,17.7,28.6,17.7,28.6"/>
	</g>
	<g>
		<line class="st5" x1="458.1" y1="184.7" x2="458.1" y2="230"/>
		<path class="st5" d="M501.1,184.7c0,0-1.1,14.4-14.4,27.7c-16.1,16.1-28.6,17.7-28.6,17.7"/>
	</g>
	<g>
		<line class="st5" x1="216.4" y1="70.7" x2="216.4" y2="115.9"/>
		<path class="st5" d="M259.4,70.6c0,0-1.1,14.4-14.4,27.7c-16.1,16.1-28.6,17.7-28.6,17.7"/>
	</g>
	<g>
		<line class="st6" x1="101.3" y1="148.9" x2="148.1" y2="148.9"/>
		<path class="st6" d="M101.2,104.5c0,0,14.9,1.1,28.6,14.9c16.7,16.7,18.3,29.5,18.3,29.5"/>
	</g>
	<g>
		<line class="st7" x1="230.5" y1="257.1" x2="275.8" y2="257.1"/>
		<path class="st7" d="M230.4,213.6c0,0,14.4,1.1,27.7,14.6c16.1,16.4,17.7,28.9,17.7,28.9"/>
	</g>
	<line class="st0" x1="216.6" y1="70.7" x2="100.7" y2="70.7"/>
	<polyline class="st0" points="374.4,5.3 374.5,70.7 259.2,70.7 	"/>
	<line class="st0" x1="402.3" y1="6.4" x2="344.5" y2="6.4"/>
	<polyline class="st0" points="564.3,56.6 564.3,6.4 512.9,6.4 	"/>
	<line class="st0" x1="564.3" y1="227.9" x2="564.3" y2="153"/>
	<polyline class="st0" points="518.2,432.4 564.3,432.4 564.3,389.1 	"/>
	<polyline class="st0" points="376.8,249.6 376.8,432.4 427.2,432.4 	"/>
	<line class="st0" x1="458.1" y1="184.6" x2="99" y2="184.6"/>
	<line class="st0" x1="564.7" y1="184.6" x2="500.8" y2="184.6"/>
	<line class="st0" x1="342.9" y1="353.1" x2="374" y2="353.1"/>
	<line class="st0" x1="201.5" y1="353.1" x2="258.6" y2="353.1"/>
	<polyline class="st0" points="99.5,104.9 99.5,6.4 135,6.4 	"/>
	<polyline class="st0" points="122.5,353.1 99.5,353.1 99.5,148.5 	"/>
	<line class="st0" x1="230.8" y1="213.2" x2="230.8" y2="185.8"/>
	<line class="st0" x1="230.8" y1="352.8" x2="230.8" y2="256.8"/>
	<line class="st0" x1="316.7" y1="145.6" x2="316.7" y2="182"/>
	<line class="st0" x1="316.7" y1="69.9" x2="316.7" y2="102.6"/>
	<line class="st5" x1="316.5" y1="102" x2="316.5" y2="147.6"/>
	<line class="st5" x1="230.6" y1="213.3" x2="230.6" y2="258.9"/>
	<line class="st5" x1="214" y1="70.4" x2="259.6" y2="70.4"/>
	<line class="st5" x1="99.5" y1="149.5" x2="99.5" y2="103.9"/>
	<line class="st5" x1="457" y1="184.2" x2="502.6" y2="184.2"/>
	<line class="st5" x1="131.5" y1="17.1" x2="224.8" y2="17.1"/>
	<line class="st5" x1="255.3" y1="17.1" x2="348.6" y2="17.1"/>
</g>
</svg>
