<?xml version="1.0" encoding="utf-8"?>
<!-- Generator: Adobe Illustrator 21.0.2, SVG Export Plug-In . SVG Version: 6.00 Build 0)  -->
<svg version="1.1" id="Layer_1" xmlns="http://www.w3.org/2000/svg" xmlns:xlink="http://www.w3.org/1999/xlink" x="0px" y="0px"
	 viewBox="0 0 800 465" style="enable-background:new 0 0 800 465;" xml:space="preserve">
<style type="text/css">
	.st0{fill:none;stroke:#EBC181;stroke-width:12.6213;stroke-miterlimit:10;}
	.st1{fill:none;stroke:#EBC181;stroke-width:0.6311;stroke-miterlimit:10;}
	.st2{fill:none;stroke:#EBC181;stroke-width:0.5414;stroke-miterlimit:10;}
	.st3{fill:none;stroke:#EBC181;stroke-width:0.4762;stroke-miterlimit:10;}
	.st4{fill:none;stroke:#EBC181;stroke-width:0.6303;stroke-miterlimit:10;}
	.st5{fill:none;stroke:#EBC181;stroke-width:0.6548;stroke-miterlimit:10;}
</style>
<g>
	<polyline class="st0" points="414,6.9 451.8,6.9 451.8,189.1 346.2,189.1 	"/>
	<polyline class="st0" points="278,189.1 155.2,189.1 155.2,6.9 185.5,6.9 	"/>
	<polyline class="st0" points="65.6,321 65.6,189.1 155.2,189.1 	"/>
	<polyline class="st0" points="229.4,379.8 229.4,452.5 65.6,452.5 65.6,428.9 	"/>
	<line class="st0" x1="229.4" y1="271.2" x2="229.4" y2="313.3"/>
	<line class="st0" x1="229.4" y1="189.1" x2="229.4" y2="206.3"/>
	<line class="st0" x1="531.4" y1="79.9" x2="451.8" y2="79.9"/>
	<polyline class="st0" points="740.7,114 740.7,79.9 699.6,79.9 	"/>
	<line class="st0" x1="740.7" y1="217.6" x2="740.7" y2="187.9"/>
	<polyline class="st0" points="572.9,452.5 601.9,452.5 601.9,336 740.7,336 740.7,319.8 	"/>
	<line class="st0" x1="357.8" y1="452.5" x2="448.1" y2="452.5"/>
	<line class="st0" x1="231" y1="452.5" x2="286.5" y2="452.5"/>
	<line class="st0" x1="64.3" y1="288.9" x2="228.4" y2="288.9"/>
	<polyline class="st0" points="497.3,336 417.8,336 417.8,336 417.8,450.4 	"/>
	<line class="st0" x1="602.7" y1="336.1" x2="560.6" y2="336.1"/>
	<g>
		<line class="st1" x1="184.8" y1="1.5" x2="416.2" y2="1.5"/>
		<line class="st1" x1="184.8" y1="12" x2="416.2" y2="12"/>
		<line class="st1" x1="184.8" y1="6.8" x2="416.2" y2="6.8"/>
	</g>
	<g>
		<line class="st2" x1="529.8" y1="74.8" x2="700" y2="74.8"/>
		<line class="st2" x1="529.8" y1="85.1" x2="700" y2="85.1"/>
		<line class="st2" x1="529.8" y1="79.9" x2="700" y2="79.9"/>
	</g>
	<g>
		<line class="st3" x1="443.1" y1="447.2" x2="574.9" y2="447.2"/>
		<line class="st3" x1="443.1" y1="457.5" x2="574.9" y2="457.5"/>
		<line class="st3" x1="443.1" y1="452.3" x2="574.9" y2="452.3"/>
	</g>
	<g>
		<line class="st2" x1="735.2" y1="189.1" x2="735.2" y2="112.8"/>
		<line class="st2" x1="745.7" y1="189.1" x2="745.7" y2="112.8"/>
		<line class="st2" x1="740.5" y1="189.1" x2="740.5" y2="112.8"/>
	</g>
	<g>
		<line class="st4" x1="735.2" y1="319.2" x2="735.2" y2="215.7"/>
		<line class="st4" x1="745.7" y1="319.2" x2="745.7" y2="215.7"/>
		<line class="st4" x1="740.5" y1="319.2" x2="740.5" y2="215.7"/>
	</g>
	<g>
		<line class="st5" x1="60" y1="430.8" x2="60" y2="319.2"/>
		<line class="st5" x1="70.5" y1="430.8" x2="70.5" y2="319.2"/>
		<line class="st5" x1="65.3" y1="430.8" x2="65.3" y2="319.2"/>
	</g>
	<line class="st5" x1="229.4" y1="313.3" x2="229.4" y2="386"/>
	<line class="st5" x1="229.4" y1="204.2" x2="229.4" y2="276.6"/>
	<line class="st5" x1="276.7" y1="188.7" x2="348.9" y2="188.7"/>
	<line class="st5" x1="277.6" y1="189.2" x2="277.6" y2="261.4"/>
	<line class="st5" x1="285.4" y1="451.9" x2="357.8" y2="451.9"/>
	<line class="st5" x1="493.5" y1="335.6" x2="565.7" y2="335.6"/>
	<path class="st5" d="M346.2,189.1c0,0-1.8,23-23,44.1c-25.7,25.7-45.6,28.2-45.6,28.2"/>
	<g>
		<line class="st5" x1="560.4" y1="335.6" x2="560.4" y2="263.3"/>
		<path class="st5" d="M491.8,335.6c0,0,1.8-23,23-44.1c25.7-25.7,45.6-28.2,45.6-28.2"/>
	</g>
	<g>
		<line class="st5" x1="229.4" y1="381.1" x2="301.6" y2="381.1"/>
		<path class="st5" d="M229.3,312.5c0,0,23,1.8,44.1,23c25.7,25.7,28.2,45.6,28.2,45.6"/>
	</g>
	<polyline class="st2" points="746.9,79.1 746.9,1.5 746.9,1.4 456.8,1 	"/>
</g>
</svg>
